:FULLY-SPECIFIED
:FORCE-ALL-JOINTS-BE-3DOF
:DEGREES
1020
root 0.248378 13.5562 -35.3941 372.268 -28.2241 342.343
lfemur -69.9558 35.9428 -4.07323
ltibia 82.1789 0 0
lfoot -12.8574 -8.22813 0
ltoes -6.41747 0 0
rfemur 10.1579 -8.7322 8.67805
rtibia 36.4119 0 0
rfoot -22.5507 -26.2408 0
rtoes -31.5779 0 0
lowerback 10.3206 -0.686415 5.60601
upperback -1.64676 0.308973 8.0175
thorax -7.61408 0.0641818 5.37232
lowerneck -6.13196 8.11985 3.71723
upperneck 8.1954 10.6099 -0.912079
head 4.04862 5.31898 -0.35215
lclavicle -3.0641e-14 -8.77557e-15 0
lhumerus 84.1119 -9.67164 27.3298
lradius 96.0424 0 0
lwrist 10.6933 0 0
lhand -35.9287 29.3538 0
lfingers 7.12502 0 0
lthumb -9.04104 59.1423 0
rclavicle -3.0641e-14 -8.77557e-15 0
rhumerus -76.8789 21.9312 -94.5604
rradius 112.014 0 0
rwrist -62.9936 0 0
rhand -9.99822 -25.2359 0
rfingers 7.12502 0 0
rthumb 15.9853 -54.5963 0
1021
root 0.24751 13.5526 -35.3903 372.267 -28.2337 342.353
lfemur -69.9667 35.9464 -4.08189
ltibia 82.2273 0 0
lfoot -12.9063 -8.15402 0
ltoes -6.54459 0 0
rfemur 10.1651 -8.7303 8.65175
rtibia 36.4143 0 0
rfoot -22.543 -26.2512 0
rtoes -31.5906 0 0
lowerback 10.3237 -0.679736 5.58688
upperback -1.64722 0.31525 8.00851
thorax -7.61654 0.0679635 5.37222
lowerneck -6.14156 8.11746 3.71247
upperneck 8.1952 10.6062 -0.904875
head 4.04946 5.31721 -0.348849
lclavicle -3.10872e-14 -7.82469e-15 0
lhumerus 84.1613 -9.15082 27.4131
lradius 96.0739 0 0
lwrist 10.6009 0 0
lhand -35.9807 29.3494 0
lfingers 7.12502 0 0
lthumb -9.09126 59.1366 0
rclavicle -3.10872e-14 -7.82469e-15 0
rhumerus -76.8822 21.9335 -94.5612
rradius 112.009 0 0
rwrist -63.014 0 0
rhand -9.99452 -25.2356 0
rfingers 7.12502 0 0
rthumb 15.9889 -54.5957 0
1022
root 0.246642 13.5489 -35.3864 372.267 -28.2418 342.361
lfemur -69.9759 35.9492 -4.08913
ltibia 82.2684 0 0
lfoot -12.9478 -8.09037 0
ltoes -6.65382 0 0
rfemur 10.171 -8.7288 8.62936
rtibia 36.4166 0 0
rfoot -22.5364 -26.2602 0
rtoes -31.6015 0 0
lowerback 10.3265 -0.674071 5.57065
upperback -1.64757 0.320581 8.0008
thorax -7.61868 0.0711733 5.37205
lowerneck -6.14942 8.11544 3.70835
upperneck 8.19478 10.6031 -0.898806
head 4.05003 5.31573 -0.346065
lclavicle -3.14631e-14 -7.00632e-15 0
lhumerus 84.2027 -8.71254 27.4846
lradius 96.0982 0 0
lwrist 10.5236 0 0
lhand -36.0241 29.3465 0
lfingers 7.12502 0 0
lthumb -9.13319 59.1327 0
rclavicle -3.14631e-14 -7.00632e-15 0
rhumerus -76.885 21.9355 -94.562
rradius 112.005 0 0
rwrist -63.0317 0 0
rhand -9.99128 -25.2354 0
rfingers 7.12502 0 0
rthumb 15.992 -54.5952 0
1023
root 0.245774 13.5452 -35.3826 372.267 -28.2486 342.368
lfemur -69.9836 35.9511 -4.09501
ltibia 82.3026 0 0
lfoot -12.9827 -8.03613 0
ltoes -6.74701 0 0
rfemur 10.1755 -8.72772 8.61058
rtibia 36.419 0 0
rfoot -22.5308 -26.2679 0
rtoes -31.6111 0 0
lowerback 10.3291 -0.669343 5.55708
upperback -1.64782 0.325039 7.99423
thorax -7.62055 0.0738554 5.37178
lowerneck -6.1556 8.11377 3.70477
upperneck 8.19407 10.6005 -0.893801
head 4.0503 5.31451 -0.343764
lclavicle -3.17729e-14 -6.3062e-15 0
lhumerus 84.2366 -8.35174 27.5453
lradius 96.1149 0 0
lwrist 10.4609 0 0
lhand -36.0594 29.3453 0
lfingers 7.12502 0 0
lthumb -9.16724 59.1306 0
rclavicle -3.17729e-14 -6.3062e-15 0
rhumerus -76.8874 21.9372 -94.5628
rradius 112.001 0 0
rwrist -63.0469 0 0
rhand -9.98845 -25.2354 0
rfingers 7.12502 0 0
rthumb 15.9947 -54.595 0
1024
root 0.244906 13.5415 -35.3787 372.267 -28.2542 342.374
lfemur -69.9899 35.9521 -4.0996
ltibia 82.3305 0 0
lfoot -13.0114 -7.9902 0
ltoes -6.82601 0 0
rfemur 10.1787 -8.72705 8.59508
rtibia 36.4214 0 0
rfoot -22.5261 -26.2745 0
rtoes -31.6194 0 0
lowerback 10.3316 -0.665477 5.54596
upperback -1.64796 0.3287 7.98868
thorax -7.62219 0.0760541 5.37139
lowerneck -6.16011 8.11242 3.70165
upperneck 8.19299 10.5985 -0.889789
head 4.05024 5.31354 -0.341912
lclavicle -3.20211e-14 -5.71007e-15 0
lhumerus 84.2633 -8.06337 27.5966
lradius 96.1238 0 0
lwrist 10.4118 0 0
lhand -36.0869 29.3459 0
lfingers 7.12502 0 0
lthumb -9.19381 59.1305 0
rclavicle -3.20211e-14 -5.71007e-15 0
rhumerus -76.8894 21.9385 -94.5637
rradius 111.998 0 0
rwrist -63.0602 0 0
rhand -9.98595 -25.2357 0
rfingers 7.12502 0 0
rthumb 15.9972 -54.5951 0
1025
root 0.244038 13.5379 -35.3749 372.267 -28.2586 342.379
lfemur -69.9949 35.9522 -4.10297
ltibia 82.3527 0 0
lfoot -13.0346 -7.95153 0
ltoes -6.89268 0 0
rfemur 10.1806 -8.72683 8.58252
rtibia 36.4241 0 0
rfoot -22.5222 -26.2801 0
rtoes -31.6267 0 0
lowerback 10.3339 -0.662394 5.53705
upperback -1.64798 0.331638 7.98402
thorax -7.62366 0.0778136 5.37085
lowerneck -6.163 8.11138 3.69892
upperneck 8.19148 10.5969 -0.886698
head 4.04981 5.31281 -0.340475
lclavicle -3.22122e-14 -5.20365e-15 0
lhumerus 84.2833 -7.84236 27.6396
lradius 96.1246 0 0
lwrist 10.3757 0 0
lhand -36.1071 29.3485 0
lfingers 7.12502 0 0
lthumb -9.21328 59.1326 0
rclavicle -3.22122e-14 -5.20365e-15 0
rhumerus -76.8911 21.9396 -94.5647
rradius 111.995 0 0
rwrist -63.0717 0 0
rhand -9.98372 -25.2363 0
rfingers 7.12502 0 0
rthumb 15.9993 -54.5955 0
1026
root 0.24317 13.5342 -35.371 372.267 -28.2621 342.383
lfemur -69.9987 35.9513 -4.1052
ltibia 82.3698 0 0
lfoot -13.0529 -7.91903 0
ltoes -6.94888 0 0
rfemur 10.1811 -8.72704 8.5726
rtibia 36.4272 0 0
rfoot -22.519 -26.285 0
rtoes -31.6331 0 0
lowerback 10.3363 -0.660018 5.53013
upperback -1.64789 0.333927 7.98013
thorax -7.62498 0.0791783 5.37014
lowerneck -6.16431 8.11061 3.6965
upperneck 8.18946 10.5959 -0.884455
head 4.049 5.31229 -0.339419
lclavicle -3.23505e-14 -4.77269e-15 0
lhumerus 84.297 -7.68366 27.6754
lradius 96.1169 0 0
lwrist 10.3518 0 0
lhand -36.1203 29.3532 0
lfingers 7.12502 0 0
lthumb -9.22607 59.1371 0
rclavicle -3.23505e-14 -4.77269e-15 0
rhumerus -76.8924 21.9405 -94.5657
rradius 111.993 0 0
rwrist -63.0818 0 0
rhand -9.98168 -25.2371 0
rfingers 7.12502 0 0
rthumb 16.0013 -54.5962 0
1027
root 0.242302 13.5305 -35.3672 372.268 -28.2646 342.387
lfemur -70.0015 35.9494 -4.10634
ltibia 82.3822 0 0
lfoot -13.0668 -7.89163 0
ltoes -6.99646 0 0
rfemur 10.1803 -8.72771 8.56499
rtibia 36.4307 0 0
rfoot -22.5163 -26.2893 0
rtoes -31.639 0 0
lowerback 10.3388 -0.658271 5.52498
upperback -1.64767 0.335641 7.97687
thorax -7.62622 0.0801924 5.36923
lowerneck -6.16406 8.1101 3.6943
upperneck 8.18687 10.5953 -0.88299
head 4.04777 5.31197 -0.338711
lclavicle -3.24404e-14 -4.40292e-15 0
lhumerus 84.3049 -7.58222 27.7052
lradius 96.1004 0 0
lwrist 10.3394 0 0
lhand -36.1271 29.3603 0
lfingers 7.12502 0 0
lthumb -9.23256 59.144 0
rclavicle -3.24404e-14 -4.40292e-15 0
rhumerus -76.8935 21.9411 -94.567
rradius 111.991 0 0
rwrist -63.091 0 0
rhand -9.97977 -25.2383 0
rfingers 7.12502 0 0
rthumb 16.0031 -54.5972 0
1028
root 0.241434 13.5268 -35.3633 372.269 -28.2663 342.39
lfemur -70.0034 35.9464 -4.10647
ltibia 82.3905 0 0
lfoot -13.077 -7.86827 0
ltoes -7.03728 0 0
rfemur 10.1782 -8.72884 8.55936
rtibia 36.4347 0 0
rfoot -22.5141 -26.293 0
rtoes -31.6446 0 0
lowerback 10.3415 -0.657077 5.52137
upperback -1.64733 0.336854 7.97411
thorax -7.62741 0.0809003 5.36809
lowerneck -6.1623 8.10981 3.69224
upperneck 8.18362 10.595 -0.88223
head 4.04608 5.31184 -0.338317
lclavicle -3.24864e-14 -4.08009e-15 0
lhumerus 84.3074 -7.53298 27.7302
lradius 96.0748 0 0
lwrist 10.3377 0 0
lhand -36.1277 29.37 0
lfingers 7.12502 0 0
lthumb -9.23316 59.1536 0
rclavicle -3.24864e-14 -4.08009e-15 0
rhumerus -76.8944 21.9416 -94.5684
rradius 111.99 0 0
rwrist -63.0994 0 0
rhand -9.97792 -25.2399 0
rfingers 7.12502 0 0
rthumb 16.0049 -54.5987 0
1029
root 0.240566 13.5231 -35.3595 372.27 -28.2673 342.392
lfemur -70.0045 35.9424 -4.10565
ltibia 82.3953 0 0
lfoot -13.084 -7.84786 0
ltoes -7.07319 0 0
rfemur 10.1748 -8.73045 8.55539
rtibia 36.4394 0 0
rfoot -22.5122 -26.2965 0
rtoes -31.6499 0 0
lowerback 10.3444 -0.656359 5.51908
upperback -1.64686 0.337642 7.97174
thorax -7.6286 0.0813461 5.3667
lowerneck -6.15906 8.10973 3.69024
upperneck 8.17966 10.5951 -0.882105
head 4.04391 5.31187 -0.338203
lclavicle -3.24928e-14 -3.78992e-15 0
lhumerus 84.3049 -7.53088 27.7517
lradius 96.0398 0 0
lwrist 10.3461 0 0
lhand -36.1226 29.3823 0
lfingers 7.12502 0 0
lthumb -9.22827 59.1661 0
rclavicle -3.24928e-14 -3.78992e-15 0
rhumerus -76.8951 21.9419 -94.5701
rradius 111.988 0 0
rwrist -63.1074 0 0
rhand -9.97606 -25.2419 0
rfingers 7.12502 0 0
rthumb 16.0067 -54.6005 0
1030
root 0.239698 13.5195 -35.3556 372.271 -28.2678 342.395
lfemur -70.005 35.9372 -4.10397
ltibia 82.3972 0 0
lfoot -13.0885 -7.82934 0
ltoes -7.10606 0 0
rfemur 10.1702 -8.73253 8.55276
rtibia 36.4448 0 0
rfoot -22.5106 -26.2999 0
rtoes -31.6554 0 0
lowerback 10.3477 -0.65604 5.51788
upperback -1.64625 0.338078 7.96961
thorax -7.62983 0.0815742 5.36504
lowerneck -6.15437 8.10982 3.68822
upperneck 8.1749 10.5956 -0.882543
head 4.04124 5.31205 -0.338335
lclavicle -3.24642e-14 -3.51816e-15 0
lhumerus 84.2979 -7.57087 27.7707
lradius 95.9951 0 0
lwrist 10.3636 0 0
lhand -36.1123 29.3975 0
lfingers 7.12502 0 0
lthumb -9.21827 59.1815 0
rclavicle -3.24642e-14 -3.51816e-15 0
rhumerus -76.8957 21.942 -94.572
rradius 111.987 0 0
rwrist -63.1155 0 0
rhand -9.97412 -25.2443 0
rfingers 7.12502 0 0
rthumb 16.0085 -54.6028 0
1031
root 0.23883 13.5158 -35.3518 372.272 -28.2678 342.397
lfemur -70.0049 35.9309 -4.10147
ltibia 82.3966 0 0
lfoot -13.091 -7.81163 0
ltoes -7.13774 0 0
rfemur 10.1642 -8.73511 8.55115
rtibia 36.4511 0 0
rfoot -22.5092 -26.3032 0
rtoes -31.6611 0 0
lowerback 10.3514 -0.656042 5.51755
upperback -1.64551 0.338236 7.9676
thorax -7.63115 0.0816288 5.36308
lowerneck -6.14828 8.11007 3.6861
upperneck 8.16928 10.5964 -0.883471
head 4.03802 5.31237 -0.33868
lclavicle -3.24049e-14 -3.25054e-15 0
lhumerus 84.2868 -7.64789 27.7884
lradius 95.9404 0 0
lwrist 10.3897 0 0
lhand -36.097 29.4157 0
lfingers 7.12502 0 0
lthumb -9.20358 59.2002 0
rclavicle -3.24049e-14 -3.25054e-15 0
rhumerus -76.8963 21.9421 -94.5743
rradius 111.985 0 0
rwrist -63.1239 0 0
rhand -9.97203 -25.2472 0
rfingers 7.12502 0 0
rthumb 16.0106 -54.6055 0
